<svg xmlns="http://www.w3.org/2000/svg" xmlns:xlink="http://www.w3.org/1999/xlink" width="800" height="450" viewBox="0 0 800 450"><rect width="100%" height="100%" fill="#DDDDDD"/><path d="M183.09 254.76L183.09 254.76Q186.41 254.76 188.92 253.80Q191.43 252.85 193.15 251.16Q194.86 249.47 195.73 247.13Q196.61 244.78 196.61 242.06L196.61 242.06Q196.61 235.57 193.01 232.25Q189.41 228.92 183.09 228.92L183.09 228.92Q176.77 228.92 173.17 232.25Q169.57 235.57 169.57 242.06L169.57 242.06Q169.57 244.78 170.45 247.13Q171.32 249.47 173.03 251.16Q174.75 252.85 177.26 253.80Q179.77 254.76 183.09 254.76ZM183.09 194.86L183.09 194.86Q180.09 194.86 177.91 195.79Q175.73 196.71 174.29 198.27Q172.84 199.82 172.16 201.84Q171.48 203.85 171.48 206.09L171.48 206.09Q171.48 208.43 172.05 210.64Q172.63 212.85 173.99 214.56Q175.35 216.28 177.59 217.32Q179.82 218.35 183.09 218.35L183.09 218.35Q186.36 218.35 188.59 217.32Q190.83 216.28 192.19 214.56Q193.55 212.85 194.13 210.64Q194.70 208.43 194.70 206.09L194.70 206.09Q194.70 203.85 193.99 201.84Q193.28 199.82 191.86 198.27Q190.45 196.71 188.27 195.79Q186.09 194.86 183.09 194.86ZM196.39 223.31L196.39 223.31Q203.58 225.65 207.02 230.48Q210.45 235.30 210.45 242.28L210.45 242.28Q210.45 247.51 208.46 251.76Q206.47 256.01 202.87 259.01Q199.28 262.01 194.24 263.64Q189.19 265.28 183.09 265.28L183.09 265.28Q176.99 265.28 171.94 263.64Q166.90 262.01 163.31 259.01Q159.71 256.01 157.72 251.76Q155.73 247.51 155.73 242.28L155.73 242.28Q155.73 235.30 159.16 230.48Q162.60 225.65 169.79 223.31L169.79 223.31Q164.07 220.91 161.21 216.50Q158.35 212.08 158.35 205.87L158.35 205.87Q158.35 201.40 160.17 197.53Q162.00 193.66 165.27 190.80Q168.54 187.94 173.09 186.33Q177.64 184.72 183.09 184.72L183.09 184.72Q188.54 184.72 193.09 186.33Q197.64 187.94 200.91 190.80Q204.18 193.66 206.01 197.53Q207.83 201.40 207.83 205.87L207.83 205.87Q207.83 212.08 204.97 216.50Q202.11 220.91 196.39 223.31ZM275.19 225L275.19 225Q275.19 235.30 272.99 242.90Q270.78 250.51 266.88 255.47Q262.99 260.43 257.67 262.85Q252.36 265.28 246.20 265.28L246.20 265.28Q240.04 265.28 234.78 262.85Q229.52 260.43 225.65 255.47Q221.78 250.51 219.60 242.90Q217.42 235.30 217.42 225L217.42 225Q217.42 214.65 219.60 207.07Q221.78 199.49 225.65 194.53Q229.52 189.57 234.78 187.15Q240.04 184.72 246.20 184.72L246.20 184.72Q252.36 184.72 257.67 187.15Q262.99 189.57 266.88 194.53Q270.78 199.49 272.99 207.07Q275.19 214.65 275.19 225ZM261.30 225L261.30 225Q261.30 216.44 260.04 210.83Q258.79 205.22 256.69 201.89Q254.59 198.57 251.87 197.23Q249.14 195.90 246.20 195.90L246.20 195.90Q243.31 195.90 240.61 197.23Q237.92 198.57 235.85 201.89Q233.77 205.22 232.55 210.83Q231.32 216.44 231.32 225L231.32 225Q231.32 233.56 232.55 239.17Q233.77 244.78 235.85 248.11Q237.92 251.43 240.61 252.77Q243.31 254.10 246.20 254.10L246.20 254.10Q249.14 254.10 251.87 252.77Q254.59 251.43 256.69 248.11Q258.79 244.78 260.04 239.17Q261.30 233.56 261.30 225ZM338.41 225L338.41 225Q338.41 235.30 336.21 242.90Q334.00 250.51 330.10 255.47Q326.21 260.43 320.89 262.85Q315.58 265.28 309.42 265.28L309.42 265.28Q303.26 265.28 298.00 262.85Q292.74 260.43 288.87 255.47Q285.00 250.51 282.82 242.90Q280.64 235.30 280.64 225L280.64 225Q280.64 214.65 282.82 207.07Q285.00 199.49 288.87 194.53Q292.74 189.57 298.00 187.15Q303.26 184.72 309.42 184.72L309.42 184.72Q315.58 184.72 320.89 187.15Q326.21 189.57 330.10 194.53Q334.00 199.49 336.21 207.07Q338.41 214.65 338.41 225ZM324.52 225L324.52 225Q324.52 216.44 323.26 210.83Q322.01 205.22 319.91 201.89Q317.81 198.57 315.09 197.23Q312.36 195.90 309.42 195.90L309.42 195.90Q306.53 195.90 303.83 197.23Q301.14 198.57 299.07 201.89Q296.99 205.22 295.77 210.83Q294.54 216.44 294.54 225L294.54 225Q294.54 233.56 295.77 239.17Q296.99 244.78 299.07 248.11Q301.14 251.43 303.83 252.77Q306.53 254.10 309.42 254.10L309.42 254.10Q312.36 254.10 315.09 252.77Q317.81 251.43 319.91 248.11Q322.01 244.78 323.26 239.17Q324.52 233.56 324.52 225ZM424.96 246.36L417.82 253.39L399.35 234.92L380.71 253.50L373.57 246.47L392.21 227.78L374.44 210.01L381.52 202.93L399.29 220.69L416.95 203.04L424.14 210.12L406.43 227.83L424.96 246.36ZM472.16 234.70L496.14 234.70L496.14 208.92Q496.14 205.27 496.63 200.86L496.63 200.86L472.16 234.70ZM507.86 234.70L517.77 234.70L517.77 242.49Q517.77 243.58 517.07 244.37Q516.36 245.17 515.05 245.17L515.05 245.17L507.86 245.17L507.86 264.40L496.14 264.40L496.14 245.17L462.89 245.17Q461.53 245.17 460.50 244.32Q459.46 243.48 459.19 242.22L459.19 242.22L457.77 235.41L495.10 185.54L507.86 185.54L507.86 234.70ZM545.46 197.80L542.68 214.21Q545.30 213.66 547.69 213.42Q550.09 213.17 552.33 213.17L552.33 213.17Q558.54 213.17 563.28 215.03Q568.02 216.88 571.24 220.15Q574.45 223.42 576.09 227.81Q577.72 232.19 577.72 237.26L577.72 237.26Q577.72 243.53 575.52 248.71Q573.31 253.89 569.39 257.56Q565.46 261.24 560.09 263.26Q554.73 265.28 548.40 265.28L548.40 265.28Q544.70 265.28 541.37 264.51Q538.05 263.75 535.13 262.47Q532.22 261.19 529.74 259.53Q527.26 257.86 525.30 256.01L525.30 256.01L529.44 250.29Q530.75 248.44 532.87 248.44L532.87 248.44Q534.23 248.44 535.65 249.31Q537.07 250.18 538.89 251.21Q540.72 252.25 543.20 253.12Q545.68 253.99 549.17 253.99L549.17 253.99Q552.87 253.99 555.71 252.80Q558.54 251.60 560.42 249.44Q562.30 247.29 563.25 244.32Q564.21 241.35 564.21 237.86L564.21 237.86Q564.21 231.43 560.48 227.81Q556.74 224.18 549.44 224.18L549.44 224.18Q543.83 224.18 537.94 226.25L537.94 226.25L529.55 223.86L536.09 185.60L575.00 185.60L575.00 191.32Q575.00 194.21 573.20 196.01Q571.40 197.80 567.10 197.80L567.10 197.80L545.46 197.80ZM644.27 225L644.27 225Q644.27 235.30 642.06 242.90Q639.85 250.51 635.96 255.47Q632.06 260.43 626.75 262.85Q621.43 265.28 615.27 265.28L615.27 265.28Q609.12 265.28 603.86 262.85Q598.60 260.43 594.73 255.47Q590.86 250.51 588.68 242.90Q586.50 235.30 586.50 225L586.50 225Q586.50 214.65 588.68 207.07Q590.86 199.49 594.73 194.53Q598.60 189.57 603.86 187.15Q609.12 184.72 615.27 184.72L615.27 184.72Q621.43 184.72 626.75 187.15Q632.06 189.57 635.96 194.53Q639.85 199.49 642.06 207.07Q644.27 214.65 644.27 225ZM630.37 225L630.37 225Q630.37 216.44 629.12 210.83Q627.86 205.22 625.77 201.89Q623.67 198.57 620.94 197.23Q618.22 195.90 615.27 195.90L615.27 195.90Q612.39 195.90 609.69 197.23Q606.99 198.57 604.92 201.89Q602.85 205.22 601.62 210.83Q600.40 216.44 600.40 225L600.40 225Q600.40 233.56 601.62 239.17Q602.85 244.78 604.92 248.11Q606.99 251.43 609.69 252.77Q612.39 254.10 615.27 254.10L615.27 254.10Q618.22 254.10 620.94 252.77Q623.67 251.43 625.77 248.11Q627.86 244.78 629.12 239.17Q630.37 233.56 630.37 225Z" fill="#999999"/></svg>