<svg width="101" height="26" fill="none" xmlns="http://www.w3.org/2000/svg"><path fill-rule="evenodd" clip-rule="evenodd" d="M12.944 0c-3 0-5.5 2.4-5.5 5.5v1.9h11.4v11.4h1.8c3 0 5.5-2.5 5.5-5.5V0h-13.2Z" fill="#2EADE2"/><path fill-rule="evenodd" clip-rule="evenodd" d="M23.8 19.3c-1 .5-2.1.9-3.3.9H5.8V5.5c0-1.2.3-2.3.9-3.3L6.6 2l-5 4.9C.6 8 0 9.4 0 10.8V26h15.2c1.5 0 2.9-.6 3.9-1.6l4.9-4.9-.2-.2ZM88.6 3l-9.7 22.9h4.4l2.3-5.6h7.7l2.3 5.6h4.5L90.5 3h-1.9Zm.9 8 2.3 5.6h-4.6l2.3-5.6ZM67.4 3l-9.6 22.9h4.4l2.3-5.6h7.7l2.3 5.6H79L69.3 3h-1.9Zm.9 8 2.3 5.6H66l2.3-5.6ZM52 3.3v22.6h4.4V3.3H52Zm-20 0v3.9h6.9v18.7h4.4V7.2h6.9V3.3H32Z" fill="#fff"/></svg>